<?xml version="1.0" encoding="utf-8"?>
<!-- Svg Vector Icons : http://www.onlinewebfonts.com/icon -->
<!DOCTYPE svg PUBLIC "-//W3C//DTD SVG 1.1//EN" "http://www.w3.org/Graphics/SVG/1.1/DTD/svg11.dtd">
<svg version="1.1" xmlns="http://www.w3.org/2000/svg" xmlns:xlink="http://www.w3.org/1999/xlink" x="0px" y="0px" viewBox="0 0 1000 1000" enable-background="new 0 0 1000 1000" xml:space="preserve">
<metadata> Svg Vector Icons : http://www.onlinewebfonts.com/icon </metadata>
<g><g transform="translate(0.000000,512.000000) scale(0.100000,-0.100000)"><path d="M6676.3,4994.2c-157.1-38.3-308.5-122.6-429.2-241.4c-362.1-354.5-362.1-948.5,0-1303c454.1-444.5,1186.1-314.2,1469.7,256.8l74.7,153.3v241.4v241.4l-74.7,153.3C7521.3,4890.7,7094,5095.8,6676.3,4994.2z"/><path d="M8870.2,3538c-101.6-36.4-159-78.6-212.7-149.5c-24.9-34.5-199.3-352.6-387.1-705.1c-187.8-352.6-344.9-645.7-346.8-649.6c-3.8-3.8-394.7,184-868,415.8c-475.2,233.8-891,429.2-925.5,435c-116.9,21.1-2379.8,277.8-2446.9,277.8c-109.2,0-212.7-42.2-300.8-122.6c-67.1-63.2-172.5-245.3-555.7-967.7c-415.8-779.9-475.2-900.6-482.9-992.6c-9.6-124.6,32.6-247.2,118.8-346.8c170.5-193.5,515.4-191.6,678.3,5.7c28.7,36.4,220.4,379.4,425.4,764.5c323.8,607.4,379.4,701.3,417.7,701.3c44.1,0,988.7-107.3,1117.1-126.5l70.9-9.6L4689.2,1183C4422.9,696.3,3909.4-256,3549.1-934.3l-659.2-1234l-1126.7-927.4c-636.2-523.1-1142-956.2-1165-992.6c-90.1-143.7-84.3-360.2,13.4-500.1c28.7-42.2,95.8-101.6,147.5-134.1c80.5-49.8,111.1-57.5,228-57.5c107.3,0,151.4,9.6,210.8,44.1c40.2,23,599.8,477.1,1245.5,1007.9l1172.7,965.7l572.9,1075c316.2,592.1,580.6,1074.9,586.3,1074.9c5.7,0,320-151.4,695.6-335.3c676.4-331.5,686-337.2,659.1-379.4c-15.3-23-258.7-477.1-542.3-1007.9c-513.5-961.9-515.4-965.7-515.4-1082.6c0-421.6,498.2-620.8,785.6-314.2c76.6,78.6,1343.2,2446.9,1372,2560c28.7,113.1-5.8,260.6-84.3,366c-53.7,72.8-128.4,115-847,473.3c-433,216.5-793.3,400.5-800.9,406.2c-7.7,9.6,862.3,1634.5,894.8,1667.1c3.8,3.8,362.1-168.6,797.1-381.3c904.4-442.6,923.6-448.4,1115.2-354.5c55.6,26.8,120.7,69,141.8,92c23,24.9,258.7,450.3,525,944.7c482.9,898.7,484.8,900.6,492.5,1034.7c7.7,151.4-15.3,229.9-101.5,331.5C9255.4,3536,9025.4,3597.4,8870.2,3538z"/></g></g>
</svg>