<?xml version="1.0" encoding="utf-8"?>
<!-- Svg Vector Icons : http://www.onlinewebfonts.com/icon -->
<!DOCTYPE svg PUBLIC "-//W3C//DTD SVG 1.1//EN" "http://www.w3.org/Graphics/SVG/1.1/DTD/svg11.dtd">
<svg version="1.1" xmlns="http://www.w3.org/2000/svg" xmlns:xlink="http://www.w3.org/1999/xlink" x="0px" y="0px" viewBox="0 0 1000 1000" enable-background="new 0 0 1000 1000" xml:space="preserve">
<metadata> Svg Vector Icons : http://www.onlinewebfonts.com/icon </metadata>
<g><g transform="translate(0.000000,511.000000) scale(0.100000,-0.100000)"><path d="M7310.9,3727.5v-254.1l965.5-4.8l967.9-7.3L8276.4,2174L7310.9,884.3V630.2V376.2h1294.6H9900v254.1v254.1h-955.8c-525.1,0-955.8,7.3-955.8,19.4c0,9.7,430.7,592.8,955.8,1294.6L9900,3475.9v251.7v254.1H8605.4H7310.9V3727.5z"/><path d="M3705.4,1670.7v-254.1h958.2c822.7,0,955.8-4.8,946.1-33.9c-7.3-19.4-440.4-602.5-958.2-1294.6l-946.1-1260.7v-254.1v-254.1H5000h1294.6v254.1v254.1l-965.5,4.8l-965.5,7.3l965.5,1289.7l965.5,1289.7v251.7v254.1H5000H3705.4V1670.7z"/><path d="M100-398.2v-266.2l958.2-4.8l955.8-7.3l-955.8-1275.2L100-3229.3v-266.2v-266.2h1282.5h1282.5v266.2v266.2l-953.4,4.8l-953.4,7.2L1711.6-1942l953.4,1275.2v268.6V-132H1382.5H100V-398.2z"/></g></g>
</svg>