<?xml version="1.0" encoding="utf-8"?>
<!-- Svg Vector Icons : http://www.onlinewebfonts.com/icon -->
<!DOCTYPE svg PUBLIC "-//W3C//DTD SVG 1.1//EN" "http://www.w3.org/Graphics/SVG/1.1/DTD/svg11.dtd">
<svg version="1.1" xmlns="http://www.w3.org/2000/svg" xmlns:xlink="http://www.w3.org/1999/xlink" x="0px" y="0px" viewBox="0 0 1000 1000" enable-background="new 0 0 1000 1000" xml:space="preserve">
<metadata> Svg Vector Icons : http://www.onlinewebfonts.com/icon </metadata>
<g><path d="M772.6,377.6L499.8,10L227.4,377.6c-58.1,65.1-93.9,150.8-93.9,244.8c0,203.2,164.4,367.6,366.4,367.6c202.7,0,366.8-164.4,366.8-367.6C866.6,528.4,831.1,442.7,772.6,377.6z M537.7,890.7c-16.5-30.9-43.7-66.3-43.7-66.3s109.6-41.2,134.4-118.3l80.8,45.7C709.1,751.8,667.9,863.9,537.7,890.7z M713.2,681.7c-31.3,0-56.4-25.1-56.4-56.5c0-31.3,25.1-56.9,56.4-56.9c31.3,0,56.5,25.6,56.5,56.9C769.7,656.6,744.6,681.7,713.2,681.7z"/></g>
</svg>